<svg width="205" height="205" viewBox="0 0 205 205" fill="none" xmlns="http://www.w3.org/2000/svg">
<path opacity="0.912" fill-rule="evenodd" clip-rule="evenodd" d="M175.972 11.4111C179.756 13.3216 183.226 15.724 186.382 18.6182C177.662 27.9207 168.854 37.1297 159.956 46.2451C159.823 46.1783 159.689 46.1118 159.556 46.0449C165.193 34.5705 170.665 23.0259 175.972 11.4111Z" fill="#FF7255"/>
<path opacity="0.908" fill-rule="evenodd" clip-rule="evenodd" d="M29.4287 25.4247C29.7796 25.3722 30.0466 25.5057 30.2295 25.825C34.0757 33.6509 37.8127 41.5252 41.4404 49.4481C41.3071 49.5814 41.1734 49.7152 41.04 49.8485C33.833 44.5101 26.626 39.1714 19.4189 33.8329C22.8421 31.1221 26.1787 28.3194 29.4287 25.4247Z" fill="#FF7255"/>
<path opacity="0.957" fill-rule="evenodd" clip-rule="evenodd" d="M134.729 34.6336C134.662 34.6338 134.596 34.6339 134.532 34.6339C127.5 34.0879 121.228 35.9564 115.713 40.2394C109.629 34.0968 102.289 31.7612 93.6918 33.2325C91.4324 33.6075 89.2971 34.3416 87.2856 35.4347C84.9745 36.8773 81.7714 39.2796 80.0786 41.4406C71.5995 35.4008 62.6576 34.6667 53.2524 39.2384C47.9488 42.1697 44.8794 46.6408 44.0434 52.6515C39.1072 52.0954 34.3025 52.6959 29.6293 54.4533C17.1511 59.7901 12.6133 68.9991 16.0161 82.0802C13.4244 83.5773 10.8885 85.1788 8.40864 86.8849C2.26982 93.0809 1.13538 100.088 5.00531 107.905C5.12799 111.834 5.66188 115.704 6.60688 119.517C8.69179 123.955 10.5603 128.493 12.2123 133.13C13.1796 134.932 14.2473 136.667 15.4155 138.335C22.1203 145.657 30.4617 149.461 40.4399 149.746C41.6182 151.833 43.0865 153.701 44.8442 155.352C50.8865 159.791 57.6263 161.326 65.0639 159.956C65.5486 159.75 66.1867 159.494 66.9081 159.205C69.5042 158.164 73.18 156.691 74.6733 155.552C76.3609 158.922 78.6295 161.858 81.4799 164.36C82.2807 165.161 82.7985 165.762 84.0825 166.563C90.4387 170.527 97.3787 172.395 104.903 172.568C106.104 172.568 107.305 172.368 108.106 172.168C117.317 171.068 124.858 166.997 130.728 159.956C131.958 160.538 132.93 161.357 134.331 162.158C135.533 162.759 136.333 163.008 137.535 163.359C136.333 163.56 136.734 163.493 137.535 163.359C139.11 163.82 140.511 163.954 142.139 164.16C141.699 164.867 141.708 164.851 142.139 164.16C142.139 164.16 142.74 164.36 144.141 164.36C147.138 164.284 150.075 163.816 152.95 162.959C161.177 159.867 165.715 153.927 166.563 145.142C174.662 145.987 182.135 144.185 188.985 139.736C201.18 130.393 203.583 118.981 196.192 105.503C196.986 104.508 197.853 103.574 198.794 102.7C204.199 90.9393 201.063 82.1307 189.385 76.2745C191.232 68.4009 189.23 61.6611 183.379 56.0548C175.605 49.707 166.796 47.6386 156.954 49.8488C154.363 43.8549 150.092 39.5172 144.141 36.8361L142.339 36.2355C141.124 35.7156 139.787 35.4072 138.511 35.113C138.111 35.0207 137.717 34.9297 137.334 34.8341C136.517 34.6299 135.509 34.632 134.729 34.6336Z" fill="#070503"/>
<path fill-rule="evenodd" clip-rule="evenodd" d="M46.2451 52.6514C46.2451 53.4521 46.2451 54.2529 46.2451 55.0537C45.4784 55.1674 44.8113 55.0341 44.2432 54.6533C44.7769 54.6533 45.311 54.6533 45.8447 54.6533C45.731 53.8866 45.8643 53.2195 46.2451 52.6514Z" fill="#35ADE1"/>
<path fill-rule="evenodd" clip-rule="evenodd" d="M81.0794 64.663C94.7984 64.0388 103.54 70.3113 107.305 83.4813C109.485 94.5205 107.616 104.797 101.7 114.311C94.036 123.539 84.3602 126.675 72.6712 123.721C64.7639 120.081 59.759 114.008 57.6565 105.503C55.235 94.2534 57.3703 83.977 64.0628 74.6727C68.5844 69.3111 74.2567 65.9747 81.0794 64.663Z" fill="#FF7255"/>
<path fill-rule="evenodd" clip-rule="evenodd" d="M130.327 103.501C128.592 103.501 126.857 103.501 125.122 103.501C124.998 104.787 125.131 105.988 125.522 107.104C125.803 112.705 125.936 118.311 125.923 123.921C121.251 123.921 116.581 123.921 111.909 123.921C112.129 115.045 112.396 106.169 112.71 97.2948C112.349 86.686 112.082 76.0757 111.909 65.4637C120.069 65.2875 128.21 65.4877 136.333 66.0643C146.556 69.7515 150.76 77.0254 148.945 87.8856C146.082 97.0894 139.876 102.294 130.327 103.501Z" fill="#FF7255"/>
<path fill-rule="evenodd" clip-rule="evenodd" d="M29.8295 77.0753C41.1285 75.2943 49.6036 79.2982 55.2543 89.087C54.8663 94.031 54.9996 98.969 55.6547 103.901C56.1207 106.767 56.988 109.503 58.2572 112.109C56.7213 120.797 52.4503 127.737 45.4447 132.93C36.5464 138.294 27.6043 138.427 18.6185 133.33C10.8805 126.925 7.14351 118.65 7.40761 108.506C7.40112 97.8439 11.405 89.0353 19.4193 82.0802C22.6615 79.858 26.1316 78.1896 29.8295 77.0753Z" fill="#FF7255"/>
<path fill-rule="evenodd" clip-rule="evenodd" d="M165.962 77.0753C173.653 76.0007 180.86 77.3352 187.583 81.0792C185.283 86.0789 182.881 91.0169 180.376 95.8937C175.93 92.299 170.859 90.4972 165.161 90.4884C162.12 91.6556 161.586 93.5238 163.56 96.0939C168.329 98.6784 173.268 100.947 178.374 102.901C186.617 107.878 188.953 114.885 185.381 123.921C181.222 132.344 174.415 136.749 164.961 137.134C159.513 136.844 154.642 135.042 150.347 131.729C148.776 130.361 147.441 128.826 146.343 127.124C148.815 123.247 151.485 119.51 154.351 115.913C157.398 119.429 161.136 121.898 165.562 123.32C168.108 123.76 170.51 123.36 172.769 122.119C174.473 120.105 174.34 118.237 172.368 116.514C168.345 114.415 164.208 112.547 159.956 110.908C151.704 107.189 148.3 100.85 149.746 91.8898C152.675 84.2223 158.08 79.2843 165.962 77.0753Z" fill="#FF7255"/>
<path fill-rule="evenodd" clip-rule="evenodd" d="M125.522 77.075C128.56 76.6914 131.363 77.292 133.931 78.8768C136.139 82.9387 136.005 86.9426 133.53 90.8885C132.82 91.4647 132.019 91.865 131.128 92.0897C129.264 92.2895 127.396 92.3563 125.522 92.2899C125.522 87.2181 125.522 82.1468 125.522 77.075Z" fill="#090404"/>
<path fill-rule="evenodd" clip-rule="evenodd" d="M79.8783 77.8761C87.5895 77.4305 92.0606 81.034 93.2914 88.6867C94.9354 96.2072 93.8676 103.281 90.0883 109.907C87.1919 112.564 83.7886 113.432 79.8783 112.51C77.5857 111.552 75.7839 110.017 74.4731 107.905C70.8395 100.553 70.1721 92.946 72.4711 85.0832C73.8489 81.5025 76.3181 79.1001 79.8783 77.8761Z" fill="#0B0605"/>
<path fill-rule="evenodd" clip-rule="evenodd" d="M109.907 113.11C110.299 114.226 110.432 115.427 110.308 116.714C110.317 119.802 110.25 122.871 110.108 125.923C111.19 127.072 112.324 128.14 113.511 129.126C119.446 129.525 125.452 129.658 131.528 129.526C131.655 127.844 131.522 126.242 131.128 124.722C131.011 120.584 130.878 116.446 130.728 112.31C130.728 111.242 130.728 110.174 130.728 109.106C131.883 109.229 132.951 109.096 133.931 108.706C139.593 108.11 144.465 105.841 148.545 101.899C152.211 108.569 157.483 113.507 164.36 116.714C164.588 118.247 164.321 119.582 163.56 120.718C159.917 118.884 156.781 116.348 154.15 113.11C150.747 117.782 147.344 122.453 143.941 127.124C145.854 129.64 147.99 131.975 150.347 134.131C148.988 134.432 147.653 134.365 146.343 133.931C146.025 134.273 146.159 134.607 146.743 134.932C148.595 136.014 150.597 136.548 152.749 136.533C160.596 142.362 169.138 143.563 178.374 140.137C189.924 134.321 193.995 125.178 190.586 112.71C189.885 111.44 189.084 110.239 188.184 109.106C185.937 107.077 183.735 105.008 181.577 102.9C177.136 100.546 172.598 98.4108 167.964 96.4941C168.675 95.7718 169.543 95.4383 170.567 95.4931C175.989 96.2691 180.66 98.5381 184.58 102.3C187.784 96.0088 190.587 89.6026 192.988 83.081C191.53 81.2208 189.728 79.8194 187.583 78.8769C181.1 75.8211 174.293 74.62 167.163 75.2734C166.016 75.6085 164.882 75.9421 163.76 76.2744C165.297 67.1415 161.627 61.3358 152.749 58.8574C149.347 58.1151 146.277 58.7825 143.54 60.8593C153.377 59.5357 159.716 63.6064 162.559 73.0713C162.887 74.294 162.821 75.4952 162.359 76.6748C159.256 77.8439 156.52 79.5788 154.15 81.8798C151.413 74.3357 146.408 68.7971 139.136 65.2636C137.445 64.6743 135.71 64.2739 133.931 64.0625C126.057 63.8623 118.183 63.7954 110.308 63.8623C110.375 69.336 110.308 74.8078 110.108 80.2783C106.869 74.7721 102.665 70.1676 97.4952 66.4648C81.9376 59.6834 69.4591 63.3538 60.0587 77.4756C58.4651 80.2551 57.264 83.1915 56.4552 86.2841C53.21 82.2342 49.273 79.0975 44.6437 76.875C42.6753 76.1519 40.6734 75.5513 38.6378 75.0732C42.6201 69.2107 48.0922 66.8752 55.0538 68.0664C46.4983 64.201 40.092 66.4696 35.8351 74.873C32.9834 74.9439 30.1806 75.3443 27.4269 76.0742C24.0273 77.3078 20.8242 78.8425 17.8175 80.6787C15.388 70.9208 18.4577 63.3798 27.0265 58.0566C32.3838 55.0501 38.1227 53.9154 44.2433 54.6533C44.8114 55.0341 45.4785 55.1674 46.2452 55.0537C46.2452 54.2529 46.2452 53.4521 46.2452 52.6513C47.4304 46.5918 50.9006 42.3877 56.6554 40.039C65.6021 36.7702 73.6099 38.305 80.6788 44.6435C87.3073 35.6059 95.9825 32.8699 106.704 36.4355C110.285 37.9455 113.221 40.2813 115.513 43.4424C123.545 36.2981 132.62 34.6298 142.739 38.4375C149.371 40.8622 153.509 45.4667 155.151 52.2509C164.571 49.678 173.246 51.2127 181.177 56.8554C187.694 62.5726 189.762 69.5794 187.383 77.8759C193.266 80.0216 197.27 84.0255 199.395 89.8877C200.037 94.3905 199.103 98.5277 196.592 102.3C195.319 103.039 194.318 104.04 193.589 105.303C199.306 113.24 199.907 121.582 195.391 130.327C190.307 137.644 183.3 141.848 174.37 142.939C170.903 143.14 167.433 143.206 163.96 143.14C164.353 153.499 159.415 159.705 149.146 161.758C142.049 163.061 135.776 161.392 130.327 156.753C123.965 165.607 115.29 170.145 104.302 170.366C90.7743 170.157 81.1649 164.018 75.4737 151.948C68.2959 158.395 60.1544 159.93 51.0499 156.553C47.1241 154.695 44.1876 151.826 42.2413 147.944C33.2371 147.814 25.4295 144.745 18.8185 138.735C17.4633 137.247 16.2621 135.646 15.2149 133.931C14.8218 133.427 14.6884 132.893 14.8146 132.329C23.3185 142.313 33.6619 144.848 45.8448 139.936C51.4283 143.342 56.7671 143.008 61.8605 138.936C59.8229 139.63 57.6876 139.963 55.4542 139.936C53.192 140.203 51.19 139.669 49.4483 138.335C56.1921 133.525 60.6633 127.119 62.8614 119.116C66.5078 123.296 70.8456 126.565 75.8741 128.926C91.2912 132.293 102.635 127.021 109.907 113.11Z" fill="#35ADE1"/>
<path fill-rule="evenodd" clip-rule="evenodd" d="M95.4932 49.8484C101.469 49.0128 106.341 50.8814 110.107 55.4539C110.991 56.6767 111.392 58.0112 111.309 59.4578C107.041 53.6333 101.369 51.5649 94.292 53.2518C90.9872 54.4197 88.3846 56.4881 86.4844 59.4578C86.8355 56.2939 88.3702 53.8247 91.0889 52.0506C92.5939 51.2983 94.0618 50.5639 95.4932 49.8484Z" fill="#0D0F06"/>
<path fill-rule="evenodd" clip-rule="evenodd" d="M133.53 82.6807C134.473 85.5178 133.805 87.9202 131.528 89.8877C131.132 87.5614 130.999 85.1591 131.128 82.6807C131.929 82.6807 132.729 82.6807 133.53 82.6807Z" fill="#35ADE1"/>
<path fill-rule="evenodd" clip-rule="evenodd" d="M83.882 83.081C86.4581 82.673 88.6602 83.34 90.4884 85.0829C90.9513 86.5335 91.3516 88.0014 91.6896 89.4872C91.9566 93.6245 91.9566 97.7621 91.6896 101.899C91.2223 104.371 90.2878 106.64 88.8868 108.706C86.2499 111.094 83.2469 111.694 79.878 110.508C76.4007 104.592 75.3997 98.253 76.8751 91.4892C77.7191 87.3808 80.0546 84.578 83.882 83.081Z" fill="#35ADE1"/>
<path fill-rule="evenodd" clip-rule="evenodd" d="M12.2119 86.6846C12.4294 86.7086 12.5628 86.8419 12.6123 87.085C8.71449 92.3033 6.51234 98.1758 6.00585 104.702C4.17009 99.668 4.83743 94.9967 8.0078 90.6885C9.36732 89.2611 10.7687 87.9266 12.2119 86.6846Z" fill="#35ADE1"/>
<path fill-rule="evenodd" clip-rule="evenodd" d="M133.53 82.6808C132.729 82.6808 131.928 82.6808 131.127 82.6808C130.998 85.1592 131.131 87.5615 131.528 89.8878C131.504 90.1052 131.37 90.2385 131.127 90.2882C130.728 87.632 130.595 84.963 130.727 82.2804C131.752 82.1595 132.686 82.2932 133.53 82.6808Z" fill="#35ADE1"/>
<path fill-rule="evenodd" clip-rule="evenodd" d="M29.429 90.2882C37.108 88.8861 41.8459 91.9559 43.6429 99.4972C44.5582 105.403 44.4248 111.276 43.2425 117.114C40.6391 124.343 35.7678 126.546 28.6282 123.721C24.7906 120.116 22.5885 115.645 22.0218 110.308C21.1057 104.483 22.04 99.0107 24.8245 93.8917C26.2057 92.4411 27.7405 91.24 29.429 90.2882Z" fill="#080504"/>
<path fill-rule="evenodd" clip-rule="evenodd" d="M33.4322 95.4931C35.4386 95.4267 37.4405 95.4935 39.438 95.6933C40.0109 95.8795 40.4779 96.2134 40.8394 96.6943C42.2648 100.085 42.8654 103.622 42.6412 107.305C43.0588 112.421 41.8576 117.092 39.0376 121.318C32.7128 125.182 28.909 123.513 27.6265 116.313C26.6029 111.027 26.8698 105.822 28.4273 100.698C29.6384 98.4868 31.3067 96.7519 33.4322 95.4931Z" fill="#35ADE1"/>
<path fill-rule="evenodd" clip-rule="evenodd" d="M130.327 103.501C128.806 103.895 127.205 104.028 125.522 103.901C125.522 104.969 125.522 106.037 125.522 107.104C125.131 105.989 124.998 104.787 125.122 103.501C126.857 103.501 128.592 103.501 130.327 103.501Z" fill="#602333"/>
<path fill-rule="evenodd" clip-rule="evenodd" d="M133.931 108.706C132.95 109.096 131.883 109.229 130.727 109.106C130.727 110.174 130.727 111.242 130.727 112.31C130.336 111.194 130.203 109.993 130.327 108.706C131.528 108.706 132.729 108.706 133.931 108.706Z" fill="#35ADE1"/>
<path fill-rule="evenodd" clip-rule="evenodd" d="M110.308 116.714C110.432 115.427 110.298 114.226 109.907 113.11C110.143 112.603 110.344 112.07 110.508 111.509C110.834 113.319 110.767 115.054 110.308 116.714Z" fill="#35ADE1"/>
<path fill-rule="evenodd" clip-rule="evenodd" d="M164.36 116.714C167.071 117.603 169.607 118.804 171.968 120.317C171.266 121.198 170.332 121.665 169.165 121.719C168.203 122.045 167.269 121.978 166.362 121.519C165.268 116.713 164.735 116.58 164.761 121.118C164.244 121.213 163.843 121.08 163.56 120.718C164.321 119.582 164.588 118.247 164.36 116.714Z" fill="#35ADE1"/>
<path fill-rule="evenodd" clip-rule="evenodd" d="M131.128 124.722C131.522 126.242 131.655 127.844 131.528 129.526C125.452 129.658 119.446 129.525 113.511 129.126C119.383 129.126 125.255 129.126 131.128 129.126C131.128 127.658 131.128 126.19 131.128 124.722Z" fill="#35ADE1"/>
<path fill-rule="evenodd" clip-rule="evenodd" d="M92.29 137.134C97.8078 145.246 105.015 147.048 113.911 142.539C115.593 141.511 116.861 140.11 117.715 138.335C116.874 142.519 114.404 145.389 110.308 146.943C103.507 148.997 97.9676 147.196 93.6914 141.538C93.0212 140.128 92.5543 138.66 92.29 137.134Z" fill="#0D0F06"/>
<path opacity="0.889" fill-rule="evenodd" clip-rule="evenodd" d="M171.567 150.347C180.016 154.371 188.424 158.508 196.792 162.759C197.225 163.105 197.292 163.506 196.992 163.96C195.39 166.095 193.789 168.231 192.187 170.366C191.767 170.773 191.3 170.84 190.786 170.566C184.591 163.972 178.252 157.498 171.767 151.147C171.582 150.91 171.515 150.643 171.567 150.347Z" fill="#FF7255"/>
<path opacity="0.926" fill-rule="evenodd" clip-rule="evenodd" d="M38.6381 152.749C38.989 152.696 39.256 152.83 39.4389 153.149C33.4466 164.144 27.374 175.088 21.2211 185.981C16.7018 182.664 12.2975 179.194 8.00825 175.571C7.76112 175.191 7.82783 174.858 8.20844 174.57C18.4491 167.386 28.5923 160.112 38.6381 152.749Z" fill="#FF7255"/>
</svg>
