<svg width="1023" height="848" viewBox="0 0 1023 848" fill="none" xmlns="http://www.w3.org/2000/svg">
<g clip-path="url(#clip0_160_65902)">
<path d="M813.544 737.321C757.538 718.929 648.763 699.891 591.139 692.469C457.76 675.69 290.39 684.079 175.464 768.944C202.334 783.787 225.643 780.56 238.268 780.238C228.233 806.697 230.175 826.703 236.326 848C319.526 751.519 460.35 737.321 592.757 754.746C640.346 760.877 721.927 778.947 782.789 793.468C941.743 831.221 956.958 682.466 870.197 660.201V635.355V607.927C870.197 592.116 870.521 569.528 870.521 539.842C870.845 516.609 870.845 496.926 871.169 481.114C871.492 464.98 871.816 452.719 872.14 443.684C872.464 440.779 871.169 438.198 869.226 435.939C867.284 433.681 864.694 432.713 861.457 432.713H846.889C842.356 432.713 838.471 432.39 834.91 432.39C831.673 432.39 829.083 433.358 827.141 435.617C825.198 437.553 824.227 440.134 824.551 443.038C824.875 447.878 825.522 453.687 825.846 460.14C826.17 466.271 826.493 476.92 826.817 492.085C827.141 507.574 827.464 527.257 827.788 552.104C828.112 576.627 828.112 596.633 827.465 612.122C827.141 627.288 825.846 637.936 825.198 644.067C824.875 648.907 819.047 649.875 806.098 647.294C792.825 644.713 786.35 640.518 785.055 635.032C784.408 631.483 783.76 623.093 783.76 609.218C783.437 595.343 784.084 575.982 784.408 551.458C785.055 526.935 785.703 506.929 786.027 491.763C786.674 476.274 786.998 465.948 787.321 460.14C787.969 453.687 788.293 448.201 788.616 443.684C788.94 440.779 787.969 438.198 786.027 436.262C783.76 434.326 781.171 433.035 778.257 433.035C766.279 433.358 756.89 433.358 750.092 433.358C747.178 433.035 744.589 434.326 742.646 435.939C740.704 437.875 739.733 440.134 739.733 442.716C740.38 452.719 740.704 466.916 740.704 485.632C741.028 504.347 741.028 527.58 741.028 554.685C741.028 581.467 740.704 604.055 740.38 622.125C740.056 640.195 739.733 653.748 739.085 663.105C738.761 665.687 740.056 668.268 741.999 670.527C743.941 672.786 746.531 674.399 749.445 674.722C762.394 677.303 775.667 679.885 788.616 682.789C809.012 687.629 832.321 689.565 852.716 694.728C893.183 701.827 889.298 762.49 813.544 737.321ZM488.839 576.305C488.191 583.726 487.544 593.729 487.867 606.636C488.515 619.221 488.839 621.48 488.839 629.547C489.162 633.419 489.486 636.968 489.486 640.195C489.81 642.776 488.839 644.713 486.896 646.971C484.63 648.907 482.364 649.875 479.127 649.875C470.062 650.521 460.674 651.166 451.285 651.812C448.372 652.134 445.782 651.166 443.84 649.553C441.573 647.939 440.926 646.003 440.926 643.422C441.573 634.71 441.897 629.547 442.221 612.445C442.545 595.343 442.868 573.723 442.868 548.232C442.868 534.356 442.868 521.127 442.545 509.51C460.026 491.763 476.537 472.402 489.81 451.751L489.486 453.687C488.839 461.754 488.515 473.37 488.191 488.213C487.867 503.379 487.544 515.318 488.839 524.676C489.486 529.516 496.285 531.775 508.263 531.13C520.241 530.484 527.039 528.548 527.039 524.999C527.363 515.318 526.392 502.411 525.744 486.923C525.097 471.434 524.773 459.818 524.773 452.396C524.449 448.524 524.449 444.974 524.126 441.748C523.802 439.166 525.097 437.23 527.039 435.294C529.305 433.358 531.572 432.713 534.809 432.713H547.758H563.621C566.535 432.39 569.125 433.358 571.391 435.294C573.333 436.907 574.304 439.166 574.304 441.748C573.981 449.492 573.657 460.463 573.333 474.983C573.01 489.504 572.686 507.251 572.686 528.548C572.362 555.331 572.038 576.95 572.038 593.407C572.038 609.541 572.362 620.512 572.362 626.32C572.686 634.064 573.01 641.163 573.333 647.939C573.657 650.521 572.686 652.457 570.743 654.393C568.477 656.329 566.211 656.974 562.974 656.974H535.456C532.543 656.974 529.953 656.006 528.01 654.393C526.068 652.457 525.097 650.521 525.097 647.939C525.421 644.713 525.744 641.486 525.744 637.936C526.068 630.515 526.392 620.512 527.039 607.605C527.687 594.697 528.658 583.726 527.363 575.337C526.716 569.851 518.946 567.592 506.968 568.238C494.99 568.883 489.81 570.819 488.839 576.305ZM170.284 706.344C170.608 699.245 170.932 691.501 171.579 683.111C172.227 669.882 172.874 655.684 173.198 640.84C173.522 625.997 173.522 611.154 173.845 595.665C174.169 580.499 174.493 566.624 174.493 553.717C174.493 540.81 174.169 529.516 173.845 519.836C173.522 510.155 173.522 503.379 173.198 499.184C172.55 494.667 171.579 490.795 170.284 487.568C168.666 484.664 166.399 483.05 163.162 482.082C160.249 481.437 151.508 481.114 146.652 481.437C129.17 482.728 129.17 477.242 129.17 465.948C129.17 463.044 129.494 460.14 129.494 456.913C129.818 451.428 129.17 446.91 129.17 442.716C129.17 439.489 130.141 436.585 132.084 434.326C134.026 432.067 136.616 431.099 139.853 431.099C150.213 431.422 170.284 431.422 191.003 431.099C202.01 431.099 212.693 430.776 221.758 430.776C228.233 446.91 236.326 461.754 246.362 475.951C244.096 476.274 240.858 476.274 236.65 476.597C232.117 476.92 224.672 478.21 222.082 479.501C219.492 481.114 217.873 483.05 216.902 484.987C215.931 486.923 215.607 489.827 215.283 493.699C214.96 497.571 214.312 504.67 214.312 514.028C214.312 523.708 214.312 535.002 214.636 547.586C214.636 560.171 215.283 574.046 215.607 588.889C215.931 603.41 216.255 617.93 216.902 632.128C217.549 646.326 218.197 659.233 218.521 671.172C218.844 678.594 219.168 685.047 219.492 690.533C219.816 693.437 218.521 696.341 216.578 698.923C214.636 701.827 212.046 703.44 209.132 704.408C199.744 707.312 190.356 710.539 181.291 713.766C178.378 714.734 175.788 714.734 173.845 713.121C171.255 711.83 170.284 709.248 170.284 706.344ZM334.094 656.974C333.77 657.942 333.446 658.91 333.123 659.878C331.828 664.073 327.943 667.623 323.411 668.591C314.346 670.527 304.958 672.14 295.569 674.399C292.008 675.367 288.771 674.399 286.829 672.14C284.886 669.882 284.562 666.655 285.857 663.428C290.066 652.457 294.598 640.84 301.073 623.738C307.548 606.314 314.022 591.148 317.583 573.078C328.59 515.964 246.038 502.734 221.434 390.442C220.787 388.183 221.758 386.247 223.7 384.956C225.643 383.665 228.233 383.02 229.851 384.633C270.966 430.454 272.261 432.067 310.137 464.335C332.151 483.05 339.597 471.757 355.784 492.408C361.287 473.37 384.273 477.888 406.61 462.076C436.717 440.779 457.436 420.451 493.695 389.796C495.313 388.183 498.874 390.442 500.817 391.732C502.435 393.346 503.407 395.282 502.759 397.54C484.306 455.945 431.538 505.315 396.574 535.97C356.755 570.819 351.899 608.25 334.094 656.974ZM618.009 428.518C627.397 428.518 640.022 428.84 655.238 428.84C673.367 428.84 686.964 428.84 696.029 428.518C698.942 428.195 701.532 429.163 703.474 431.099C705.417 433.035 706.712 434.971 706.712 437.553V457.881C706.712 460.463 705.417 462.399 703.474 464.335C701.532 465.948 698.942 466.594 696.029 466.594C689.554 466.271 682.108 466.271 673.691 466.271C661.065 466.271 653.296 466.916 651.029 467.885C648.44 469.175 647.145 477.565 646.497 493.376C645.526 509.51 647.792 517.9 652.648 519.19C665.274 519.836 673.691 520.158 678.547 520.158C680.813 520.481 683.403 520.481 686.64 520.481C689.554 520.481 692.144 521.449 694.41 523.385C696.676 525.321 697.647 527.58 697.647 530.162C697.323 534.034 697.323 538.551 697.323 543.714C697.323 548.232 697.647 551.781 697.647 555.008C697.647 557.267 696.676 559.525 694.734 561.139C692.791 562.752 690.201 563.398 687.288 563.398C685.021 563.075 682.432 562.752 680.166 562.752C674.015 562.107 665.274 561.784 653.296 561.461C650.058 562.429 648.44 570.819 648.44 587.276C648.44 603.732 649.087 613.413 650.382 615.994C651.677 618.898 655.885 620.512 662.36 621.157C677.252 622.77 689.23 623.738 697.971 624.706C700.885 625.029 703.474 626.32 705.417 628.256C707.359 630.192 708.33 632.451 708.33 635.032C708.33 644.713 708.654 652.457 708.654 657.942C708.654 660.524 707.683 662.46 705.741 664.073C703.798 665.687 701.208 666.009 698.295 665.687C684.05 663.751 669.806 662.137 655.238 660.847C640.67 659.556 626.426 658.588 612.181 657.942C609.268 657.62 606.678 656.652 604.735 655.038C602.469 653.102 601.822 651.166 601.822 648.585C602.146 640.518 602.469 627.611 602.469 610.186C602.793 592.761 602.793 571.142 602.793 544.359C602.793 519.513 603.117 498.539 603.117 481.437C603.117 464.335 602.793 451.105 602.469 442.07C601.174 431.422 600.851 428.518 618.009 428.518Z" fill="url(#paint0_linear_160_65902)"/>
<path d="M35.287 605.668C54.7111 605.668 70.5741 589.857 70.5741 570.496C70.5741 551.135 54.7111 535.324 35.287 535.324C15.863 535.324 0 551.135 0 570.496C0 589.857 15.863 605.668 35.287 605.668Z" fill="url(#paint1_linear_160_65902)"/>
<path d="M987.713 605.669C1007.14 605.669 1023 589.858 1023 570.497C1023 551.136 1007.14 535.325 987.713 535.325C968.289 535.325 952.426 551.136 952.426 570.497C952.426 589.858 968.289 605.669 987.713 605.669Z" fill="url(#paint2_linear_160_65902)"/>
<path d="M1022.03 81.9608C1021.71 88.0917 1021.71 95.5133 1021.38 104.226C1021.06 122.618 1020.73 146.819 1020.73 176.506C1020.73 206.515 1020.41 231.361 1020.41 251.367C1020.41 271.373 1020.41 286.539 1020.73 296.542C1021.06 316.871 1021.38 335.264 1021.71 352.366C1022.03 364.95 1022.68 376.567 1023 387.86C1023.32 390.765 1022.03 393.346 1020.09 395.282C1018.14 397.541 1015.55 398.509 1012.64 398.509H986.094C983.181 398.509 980.591 397.541 978.649 395.282C976.706 393.346 975.735 390.765 975.735 387.86C976.059 382.375 976.382 376.244 976.382 369.468C976.706 357.851 976.706 344.944 977.03 330.746C977.354 316.548 977.677 303.319 978.001 290.734C978.325 278.15 978.649 268.792 978.325 262.984C978.001 257.175 977.354 253.949 976.382 253.949C975.411 253.626 973.793 256.53 971.85 261.693C969.584 268.147 966.994 276.859 964.081 288.153C961.167 299.124 957.282 317.194 951.455 342.04C947.246 360.755 944.009 375.599 941.743 386.57C940.772 391.41 936.239 394.959 931.383 394.637C925.88 394.314 918.434 394.314 908.722 394.314C905.808 394.314 903.542 393.346 901.6 391.41C899.657 389.474 898.686 387.215 898.686 384.311C899.01 376.244 899.01 364.305 899.01 348.816C899.01 324.615 898.686 291.702 898.362 249.754C898.039 207.806 897.391 175.215 897.068 151.659C896.744 135.848 896.42 124.232 896.096 116.81C895.773 112.293 898.686 108.098 903.219 106.484C913.578 103.258 921.671 100.676 927.822 98.7401C931.06 97.4494 934.297 98.0948 937.211 100.031C939.8 101.967 941.419 104.871 941.419 108.42C941.419 123.586 941.095 137.139 941.095 149.401C941.095 165.857 940.772 180.055 940.448 191.672C940.124 215.55 939.8 230.716 940.124 237.169C940.772 244.268 943.038 243.946 946.599 235.879C949.513 229.748 952.75 220.067 956.635 207.16C960.519 193.93 965.375 172.956 970.555 144.561C975.087 120.037 978.325 101.644 979.944 89.0597C980.591 85.5103 982.857 82.2835 986.418 80.9928C994.835 77.766 1001.63 75.1846 1007.46 72.9258C1010.7 71.6351 1014.26 71.9578 1017.17 73.8938C1020.73 75.1845 1022.03 78.0887 1022.03 81.9608ZM790.559 304.287C789.588 312.999 789.264 324.293 789.588 338.491C790.235 352.688 790.235 364.628 790.559 373.663C790.559 377.857 790.883 381.73 791.206 385.279C791.53 388.183 790.559 390.765 788.617 393.023C786.674 395.282 784.084 396.25 781.171 396.25H754.301C751.387 396.573 748.797 395.282 746.855 393.023C744.912 391.087 743.941 388.506 743.941 385.602C744.589 378.18 744.913 368.177 744.913 355.593C745.56 335.264 745.884 308.159 745.884 274.6C745.884 240.719 745.56 213.614 745.236 192.64C744.912 178.119 744.589 166.825 744.265 158.758C743.941 153.273 747.826 149.078 753.006 148.11C759.481 147.142 768.545 145.529 779.876 143.27C783.113 142.624 786.35 143.592 788.617 145.529C791.206 147.787 792.178 150.369 792.178 153.918C791.854 157.145 791.53 160.694 791.53 164.567C790.883 173.924 790.559 187.154 790.235 204.256C789.912 221.358 789.588 234.911 790.883 245.236C791.53 251.045 798.005 252.981 809.659 251.045C821.314 249.109 827.788 246.204 828.112 241.687C828.436 230.07 827.465 215.227 826.817 197.157C826.17 179.087 825.846 165.535 825.846 156.5C825.846 151.337 825.522 146.497 825.199 142.302C824.875 137.462 828.112 132.944 833.292 131.653C837.177 130.685 842.357 129.395 848.507 128.104C853.04 126.813 857.248 125.845 860.809 124.877C864.047 123.909 867.284 124.554 869.874 126.813C872.464 128.749 873.759 131.653 873.759 135.203C873.435 141.979 873.435 150.369 873.111 160.694C872.788 180.378 872.464 206.515 872.14 239.428C871.816 272.341 871.493 298.478 871.493 318.484C871.493 338.168 871.816 351.72 871.816 358.819C872.14 368.5 872.464 377.212 872.788 385.602C873.111 388.506 872.14 391.087 870.198 393.346C868.255 395.605 865.665 396.573 862.752 396.573C854.011 396.895 845.27 396.895 836.206 396.895C833.292 396.895 830.702 395.605 828.76 393.669C826.817 391.733 825.846 389.151 826.17 385.924C826.493 382.375 826.493 378.503 826.817 374.308C827.141 365.596 827.465 353.656 828.112 338.491C828.76 323.325 829.731 310.74 828.436 300.737C827.788 294.606 820.343 292.347 808.688 293.638C796.71 294.929 791.206 298.478 790.559 304.287ZM639.699 312.354C638.728 320.098 638.404 330.424 638.728 343.653C639.375 356.883 639.375 367.532 639.699 375.921C639.699 379.471 640.023 382.698 640.346 385.602C640.67 388.506 639.375 391.087 637.433 393.346C635.49 395.605 632.9 396.573 629.987 396.573H603.441C600.527 396.573 597.937 395.605 595.995 393.346C594.052 391.087 593.081 388.828 593.081 385.602C593.729 378.825 594.052 369.468 594.052 358.174C594.7 339.136 595.024 313.967 595.024 282.344C595.024 250.722 594.7 225.23 594.376 205.547C594.052 192.962 593.729 182.959 593.405 175.215C593.081 169.407 597.29 164.567 603.117 164.567C609.592 164.244 618.656 163.599 629.987 162.631C632.9 162.308 635.814 163.276 638.08 165.535C640.346 167.793 641.318 170.375 640.994 173.602C640.67 176.506 640.346 180.055 640.346 183.282C639.699 191.994 639.375 204.256 639.051 219.745C638.404 235.556 638.404 247.818 639.699 257.498C640.346 262.661 646.821 264.597 658.475 263.629C670.13 262.338 676.605 260.08 676.928 256.207C677.252 245.559 676.281 232.329 675.633 215.873C674.986 199.416 674.662 187.154 674.662 179.087C674.662 175.215 674.338 171.343 674.338 167.793C674.015 162.308 677.9 157.468 683.403 157.145C687.288 156.5 691.82 156.177 697.324 155.532C702.503 154.886 706.712 154.241 710.92 153.596C714.158 152.95 717.071 153.918 719.337 156.177C721.604 158.436 722.899 161.017 722.575 164.244C722.251 170.375 722.251 177.474 721.927 186.509C721.604 203.933 721.28 227.166 720.956 256.207C720.632 285.249 720.309 308.804 720.309 326.551C720.309 344.299 720.632 355.915 720.632 362.369C720.956 370.436 721.28 377.857 721.604 384.634C721.927 387.538 720.632 390.119 718.69 392.378C716.748 394.637 714.158 395.605 711.244 395.605H685.022C682.108 395.605 679.518 394.314 677.576 392.378C675.633 390.442 674.662 387.86 674.662 384.634C674.986 381.73 674.986 378.503 675.31 375.276C675.633 367.532 675.957 356.883 676.605 343.008C677.252 329.456 678.223 317.839 676.928 309.127C676.281 303.319 668.835 301.382 657.181 302.028C645.85 303.641 640.346 306.868 639.699 312.354ZM464.559 385.602C454.199 378.18 447.724 364.628 442.545 346.558C439.955 337.2 438.012 326.874 436.717 315.58C435.423 304.287 435.423 288.153 436.07 266.533C437.041 244.914 438.336 230.393 439.955 222.971C442.545 212.968 445.135 203.933 448.372 195.866C451.609 188.122 455.818 181.346 460.674 175.538C465.53 170.052 471.357 166.18 477.832 163.276C484.306 160.372 492.076 159.081 500.817 159.404C509.234 159.726 517.004 161.34 523.478 164.244C529.953 167.148 535.78 171.666 540.636 177.474C545.492 183.282 549.701 190.058 552.938 198.125C556.175 206.192 559.089 215.227 561.355 225.23C562.974 232.652 564.593 241.364 565.24 251.69C566.211 262.016 566.535 272.664 566.535 283.635C566.211 294.929 565.564 305.9 564.269 316.871C562.974 328.165 561.355 338.168 558.442 347.526C553.262 365.273 545.816 378.18 536.428 386.247C534.161 388.183 531.895 389.797 529.305 391.087C513.119 400.445 518.622 391.087 507.615 382.698C501.141 377.857 492.076 375.276 485.278 381.084C478.479 387.86 473.623 392.378 464.559 385.602ZM477.832 282.022C477.832 308.159 479.774 327.842 483.335 340.749C486.573 353.656 492.4 360.11 500.817 360.11C508.91 360.11 514.737 353.656 518.299 340.749C521.86 327.842 523.802 308.481 523.802 282.344C523.802 268.469 523.155 256.207 522.183 245.559C521.212 234.911 519.917 225.876 517.975 218.454C514.09 203.933 508.263 196.512 500.817 196.512C493.047 196.189 487.22 203.933 483.659 219.099C481.717 226.844 480.422 235.879 479.45 246.204C478.479 256.853 477.832 268.792 477.832 282.022ZM267.405 330.101C258.664 345.912 254.455 358.819 251.542 367.854C250.894 370.436 249.923 373.34 249.275 375.921C246.686 383.988 245.714 383.343 238.916 376.567C233.089 370.113 223.7 370.113 216.902 374.631C211.075 378.503 208.161 385.924 209.78 392.701C210.427 394.314 209.78 395.282 205.571 395.282C202.01 395.282 198.773 393.669 196.83 390.765C194.888 387.86 194.564 384.311 196.183 381.084C201.686 368.822 207.837 354.625 214.636 338.491C224.024 316.226 231.146 300.092 235.031 289.766C238.916 279.44 241.182 271.696 241.182 265.888C241.182 248.786 211.399 194.898 202.334 173.924C194.888 157.145 185.824 141.334 180.968 130.04C179.673 126.49 180.32 122.296 182.91 119.392C185.5 116.487 189.385 115.197 193.269 116.165C202.658 118.424 216.902 122.296 226.29 124.554C230.175 125.522 233.089 129.717 234.707 133.267C255.426 179.087 251.865 186.831 276.793 234.265C286.829 253.303 290.39 249.109 290.39 230.393C290.066 216.518 290.066 203.611 289.742 191.994C289.418 180.055 289.095 169.407 288.771 159.726C288.447 156.5 289.742 153.596 292.008 151.659C294.598 149.401 297.512 148.755 300.425 149.078C309.814 150.691 319.202 151.982 328.59 153.596C333.77 154.241 337.331 158.758 337.331 163.921C337.007 173.602 336.684 189.413 336.684 210.71C336.684 222.003 336.684 231.038 337.007 237.815C337.655 253.949 340.245 255.885 352.223 236.524C357.726 227.812 362.906 217.163 367.438 204.579C373.913 187.154 378.445 173.602 381.035 162.631C382.33 157.79 386.862 153.596 392.042 154.241C401.754 155.209 411.466 156.177 421.178 156.822C424.739 157.145 427.653 159.081 429.272 161.985C430.89 165.212 430.89 168.439 429.272 171.666C424.739 180.378 419.236 191.349 412.761 205.224C402.078 227.489 395.28 243.946 391.071 254.594C387.186 265.242 384.92 272.664 384.92 277.504C384.92 282.344 386.862 290.089 391.071 299.769C394.956 309.449 399.488 319.775 404.668 330.424C409.524 341.072 414.704 351.075 419.236 361.078C421.826 367.209 425.063 373.663 428.624 380.762C430.243 383.988 430.243 387.538 427.977 390.765C426.034 393.991 423.121 395.605 419.236 395.605H389.452C384.92 395.605 380.712 392.701 379.74 388.183C377.474 380.762 374.884 371.727 370.999 361.401C368.41 354.302 363.877 345.267 358.374 333.973C354.165 325.583 348.662 316.226 342.835 305.577C339.597 299.446 336.684 297.833 337.331 307.513C337.979 315.258 337.655 325.583 337.655 339.136C337.331 359.465 337.331 374.953 337.979 384.956C338.302 387.86 337.007 390.442 335.065 392.378C333.123 394.637 330.533 395.605 327.619 395.605H297.836C294.922 395.605 292.332 394.637 290.39 392.378C288.447 390.442 287.476 387.86 287.476 384.956C287.8 375.599 288.124 362.369 288.447 345.912C288.771 322.034 289.095 307.836 289.095 303.641C288.447 292.993 285.534 298.156 280.03 305.9C277.44 311.708 272.908 320.098 267.405 330.101ZM164.457 395.927C153.774 395.605 135.321 395.927 109.099 395.927C92.9118 395.927 76.4014 395.605 60.5384 395.605C43.7042 395.282 26.87 395.282 10.0358 394.959C4.20863 394.959 -0.323648 390.442 8.57301e-05 384.634C8.57301e-05 377.212 0.32382 370.436 0.32382 364.305V348.494C0.32382 345.59 1.29502 343.008 3.56116 341.072C5.8273 339.136 8.41718 338.168 11.3308 338.491C17.8055 339.136 21.6903 339.136 22.6615 338.813C24.2802 326.874 26.2226 309.127 29.1362 285.249C32.0498 261.693 35.6108 232.007 39.8194 196.835C44.0279 162.308 47.2653 134.88 49.5314 114.551C50.5026 107.452 51.1501 100.999 51.7976 95.5133C52.445 90.6731 54.7112 86.801 58.9197 84.2196C63.1283 81.6381 67.6605 81.3155 72.1928 82.9288C84.8184 87.4464 97.4441 91.9639 110.07 96.4814C115.897 98.4174 119.782 103.258 120.429 109.389C121.077 115.842 122.048 125.2 123.343 136.494C125.609 156.177 128.846 182.959 132.731 216.841C136.94 250.399 140.501 277.827 143.091 299.446C146.004 321.066 148.27 336.877 149.889 346.88C153.774 347.526 158.63 347.848 164.781 348.171C170.284 348.494 174.493 353.011 174.493 358.497V377.535V385.602C174.817 388.506 173.522 391.087 171.579 393.023C169.961 394.637 167.371 395.927 164.457 395.927ZM109.422 344.944C108.775 339.136 106.832 322.679 103.271 295.574C99.7102 268.147 97.1203 246.527 95.1779 230.393C93.2355 214.582 91.9406 201.675 91.2931 191.994C90.6457 182.314 89.6745 174.57 88.7033 168.761C88.0558 165.535 87.4083 164.244 86.7608 164.244C85.7896 164.567 85.4659 165.535 84.8185 167.793C83.5235 172.956 82.5523 180.055 81.2574 189.413C80.2862 198.771 78.6675 211.032 77.0488 226.844C75.1064 242.655 73.164 264.274 70.5741 291.379C67.9843 319.13 66.3656 335.909 65.3944 342.363C67.6605 343.008 75.1064 343.331 87.4083 343.976C100.358 344.621 107.48 344.944 109.422 344.944Z" fill="url(#paint3_linear_160_65902)"/>
<path d="M152.155 43.5616C152.802 40.9802 153.774 38.7215 155.069 36.7854C156.363 34.5266 157.658 32.5906 159.601 30.9772C161.219 29.0411 163.162 27.7504 165.428 26.4597C167.37 25.1689 169.637 24.2009 171.903 23.5556C173.845 22.9102 176.111 22.5875 178.701 22.5875C181.291 22.5875 183.881 22.9102 186.147 23.5556C188.737 24.2009 191.003 25.1689 193.269 26.4597C195.535 27.7504 197.478 29.0411 199.096 30.6545C200.715 32.2679 202.334 34.204 203.305 36.4627C204.6 38.3988 205.571 40.6575 206.219 42.9163C206.866 45.175 207.19 47.7565 207.513 50.0152C207.513 52.5966 207.19 55.1781 206.542 57.4368C205.895 60.0183 204.924 62.277 203.629 64.5358C202.334 66.7945 201.039 68.7306 199.42 70.344C197.801 71.9574 195.859 73.5708 193.593 74.5388C191.327 75.8295 189.384 76.7976 186.795 77.4429C184.528 78.0883 182.262 78.4109 179.672 78.4109C177.082 78.7336 174.816 78.0883 172.226 77.4429C169.637 76.7976 167.37 75.8295 165.104 74.5388C163.162 73.2481 161.219 71.9574 159.277 70.344C157.335 68.4079 156.04 66.7945 154.745 64.5358C153.45 62.277 152.479 60.3409 151.831 57.7595C151.184 55.5008 150.86 53.242 150.86 50.6606C151.184 48.7245 151.507 46.1431 152.155 43.5616ZM162.838 46.4658C162.191 48.7245 161.867 50.9833 162.191 53.5647C162.514 55.8234 163.162 58.0822 164.133 60.0183C165.104 61.9543 166.723 63.5677 168.342 65.1811C170.284 66.7945 172.226 67.7626 174.816 68.4079C177.082 69.0533 179.349 69.0533 181.938 68.7306C184.205 68.4079 186.147 67.4399 188.089 66.4718C190.032 65.1811 191.651 63.8904 192.945 61.9543C194.24 60.0183 195.212 58.0822 195.859 55.5008C196.507 52.9193 196.83 50.6606 196.507 48.4018C196.183 46.1431 195.535 43.8843 194.564 41.9482C193.269 40.0122 191.974 38.3988 190.356 36.7854C188.413 35.4947 186.471 34.5266 184.205 33.8813C181.615 33.2359 179.349 33.2359 177.082 33.5586C174.816 33.8813 172.874 34.8493 170.932 35.8174C168.989 37.1081 167.37 38.7215 165.752 40.3349C164.133 41.9482 163.162 43.8843 162.838 46.4658ZM247.009 54.21C247.333 52.274 247.333 50.9833 246.038 49.6925C245.067 48.4018 243.448 47.4338 241.829 47.1111L231.146 44.8524L228.556 57.1142L239.239 59.3729C240.211 59.6956 241.182 59.6956 242.153 59.3729C243.124 59.0502 243.772 58.7275 244.419 58.4049C245.067 58.0822 245.714 57.4368 246.038 56.7915C246.685 55.8234 247.009 54.8554 247.009 54.21ZM226.938 65.5038L224.024 79.379L236.973 82.2831C237.944 82.6058 238.916 82.6058 239.887 81.9604C240.858 81.6377 241.506 81.3151 242.153 80.9924C243.124 80.347 243.448 79.7017 244.095 79.0563C244.743 78.0883 245.067 77.4429 245.067 76.4749C245.39 75.5069 245.39 74.5388 245.067 73.5708C244.743 72.6027 244.419 71.6347 244.095 70.9893C243.772 70.0213 243.124 69.3759 242.477 68.7306C241.829 68.0852 240.858 67.7626 239.887 67.4399L226.938 65.5038ZM257.692 56.1461C257.369 58.0822 256.397 59.6956 255.426 61.6317C254.455 63.2451 253.16 64.2131 251.865 65.1811C252.836 66.1492 253.484 67.1172 254.131 68.4079C254.779 69.6986 255.102 70.6667 255.426 71.9574C255.75 72.9254 255.75 74.2161 255.75 75.5068C256.074 76.7976 255.75 78.0883 255.426 79.379C254.779 81.6377 254.131 83.2511 252.836 85.1872C251.541 86.8006 250.246 88.414 248.628 89.382C247.009 90.6728 245.067 91.3181 242.801 91.9635C240.858 92.6088 238.592 92.6088 236.326 91.9635L213.341 87.1233C212.693 87.1233 212.369 86.8006 212.046 86.4779C211.722 85.8326 211.722 85.5099 211.722 84.8645L222.082 35.4947C222.405 34.8493 222.405 34.5266 223.053 34.204C223.7 33.8813 224.024 33.8813 224.671 33.8813L246.038 38.0761C248.304 38.7215 249.923 39.3668 251.865 40.3349C253.484 41.6256 254.779 42.9163 256.074 44.5297C257.369 46.1431 258.016 48.0791 258.34 50.0152C258.34 51.9513 258.34 54.21 257.692 56.1461ZM280.677 80.0243L296.217 82.6058L291.684 62.5997L280.677 80.0243ZM289.742 47.4338C290.066 47.1111 290.389 46.7884 290.713 46.7884C291.037 46.4658 291.361 46.4658 292.008 46.4658L296.217 47.1111C296.864 47.4338 297.188 47.4338 297.512 47.7565C297.835 48.0791 297.835 48.4018 298.159 48.7245L311.108 103.257C311.108 103.58 310.785 103.903 310.461 104.225C310.137 104.548 309.49 104.548 308.842 104.548L302.044 103.257C301.396 103.257 301.073 103.257 301.073 102.935C300.749 102.612 300.749 102.289 300.425 101.967L298.159 92.9315L275.174 89.0594L270.318 96.8036C269.994 97.7717 269.347 97.7717 268.699 97.7717L261.253 96.8036C260.606 96.8036 260.282 96.481 259.958 96.1583C259.635 95.8356 259.635 95.5129 259.635 95.1903C259.635 94.8676 262.225 90.9954 267.081 83.2511C272.584 75.1842 280.03 63.245 289.742 47.4338ZM332.475 70.344C332.799 69.3759 333.122 68.4079 333.446 67.7626C333.77 66.7945 334.417 66.1492 335.389 65.5038C336.036 64.8584 337.007 64.5358 337.978 63.8904C338.95 63.5677 340.245 63.5677 341.216 63.5677L353.518 65.1811L351.575 80.6697L338.95 79.0563C337.655 78.7336 336.683 78.411 335.712 78.0883C334.741 77.4429 334.094 76.7976 333.77 76.1522C333.122 75.1842 332.799 74.5388 332.475 73.5708C332.475 72.2801 332.475 71.312 332.475 70.344ZM365.496 58.4049C365.82 57.1142 365.172 56.4688 363.877 56.4688L341.863 53.8874C339.273 53.5647 337.007 53.5647 334.741 54.5327C332.475 55.1781 330.533 56.1461 328.59 57.7595C326.971 59.0502 325.353 60.6636 324.382 62.9224C323.087 64.8584 322.439 67.1172 322.115 69.6986C321.792 71.312 321.792 72.9254 322.115 74.5388C322.439 76.1522 322.763 77.4429 323.41 78.7336C324.058 80.347 324.705 81.3151 325.676 82.6058C326.648 83.8965 327.619 84.8645 328.914 85.8326L317.259 104.225C317.259 104.225 316.936 104.225 316.936 104.548V104.871C316.936 105.193 316.936 105.516 317.259 105.839C317.583 106.161 317.907 106.161 318.554 106.484L327.295 107.452C327.943 107.775 328.59 107.129 328.914 106.484L339.273 89.7047L350.604 90.9954L348.338 108.42C348.014 109.388 348.662 110.033 349.633 110.356L357.402 111.324C357.726 111.647 358.374 111.324 358.697 111.002C359.021 110.679 359.345 110.356 359.345 109.711L365.496 58.4049ZM427.329 76.7976C427.653 74.8615 427.005 73.5708 425.71 72.2801C424.415 71.312 423.121 70.6667 421.178 70.344L410.171 69.6986L409.2 82.2831L420.207 82.9285C421.178 82.9285 422.149 82.9285 422.797 82.6058C423.768 82.2831 424.415 81.9604 425.063 81.3151C425.71 80.6697 426.358 80.0244 426.682 79.379C427.005 78.7336 427.329 77.7656 427.329 76.7976ZM408.876 90.9954L407.905 105.193L421.178 106.161C422.149 106.484 423.12 106.161 423.768 105.839C424.739 105.516 425.387 104.871 426.034 104.548C426.682 103.903 427.329 103.257 427.653 102.289C427.977 101.321 428.3 100.676 428.3 99.7078C428.3 98.7397 428.3 97.7717 427.976 97.1263C427.653 96.1583 427.329 95.5129 426.682 94.5449C426.034 93.8995 425.387 93.2542 424.739 92.9315C423.768 92.2861 423.12 91.9635 422.149 91.9635L408.876 90.9954ZM438.336 77.4429C438.012 79.379 437.689 81.3151 437.041 82.9285C436.07 84.5419 435.099 86.1553 433.804 87.1233C434.775 88.0913 435.746 88.7367 436.394 89.7047C437.365 90.6727 437.689 91.9635 438.336 92.9315C438.983 93.8995 439.307 95.1903 439.631 96.481C439.955 97.7717 439.955 99.0624 439.955 100.353C439.631 102.612 439.307 104.548 438.336 106.484C437.365 108.42 436.07 110.033 434.451 111.324C432.832 112.938 431.214 113.906 429.271 114.551C427.329 115.196 425.387 115.519 423.12 115.519L399.164 113.906C398.517 113.906 397.869 113.583 397.546 113.26C397.222 112.938 396.898 112.292 396.898 111.647L400.135 61.309C400.135 60.6636 400.459 60.3409 400.783 59.6956C401.107 59.3729 401.754 59.0502 402.401 59.3729L424.092 60.6636C426.358 60.9863 428.3 61.309 430.243 62.277C431.861 63.245 433.48 64.5358 434.775 65.8265C436.07 67.1172 437.041 68.7306 437.689 70.6667C438.012 73.2481 438.336 75.1842 438.336 77.4429ZM448.048 90.0274C448.048 87.446 448.372 84.8645 449.343 82.6058C449.99 80.347 450.962 78.0883 452.257 76.1522C453.551 73.8935 455.17 72.2801 456.789 70.344C458.731 68.7306 460.35 67.4399 462.616 66.1492C464.558 64.8584 466.825 64.2131 469.414 63.5677C472.004 62.9224 474.271 62.5997 476.86 62.5997C479.45 62.9224 482.04 63.245 484.306 63.8904C486.572 64.5358 488.839 65.5038 491.105 66.7945C493.047 68.0852 494.989 69.3759 496.608 71.312C498.227 72.9254 499.522 74.8615 500.817 77.1202C502.112 79.0563 502.759 81.3151 503.407 83.8965C504.054 86.4779 504.378 89.0594 504.378 91.3181C504.054 93.8995 503.73 96.481 503.083 98.7397C502.112 100.998 501.14 103.257 500.169 105.516C498.874 107.452 497.256 109.388 495.637 111.002C494.018 112.615 492.076 113.906 489.81 115.196C487.544 116.487 485.277 117.132 483.011 117.778C480.421 118.423 478.155 118.746 475.565 118.746C472.976 118.423 470.709 118.1 468.12 117.455C465.853 116.81 463.587 115.842 461.645 114.551C459.379 113.26 457.76 111.97 456.141 110.033C454.523 108.42 452.904 106.484 451.933 104.225C450.638 101.967 449.99 99.7078 449.343 97.449C448.048 95.1903 447.724 92.9315 448.048 90.0274ZM458.731 90.3501C458.408 92.9315 459.055 95.1903 459.702 97.449C460.674 99.7078 461.645 101.321 463.264 103.257C464.558 104.871 466.501 106.161 468.443 107.129C470.709 108.097 472.652 108.743 475.242 108.743C477.832 108.743 480.098 108.42 482.364 107.452C484.306 106.484 486.249 105.516 487.867 103.903C489.486 102.289 490.457 100.676 491.428 98.417C492.4 96.1583 492.723 93.8995 493.047 91.6408C493.047 89.0594 492.723 86.8006 491.752 84.5419C490.781 82.2831 489.81 80.6697 488.515 78.7336C486.896 77.1202 485.277 75.8295 483.011 74.8615C481.069 73.8935 478.803 73.2481 476.213 73.2481C473.623 73.2481 471.357 73.5708 469.414 74.5388C467.148 75.5068 465.53 76.7976 463.911 78.4109C462.292 80.0243 460.997 81.6377 460.35 83.8965C459.379 85.5099 458.731 88.0913 458.731 90.3501ZM512.471 119.714C511.824 119.714 511.5 119.391 511.176 119.068C510.852 118.746 510.852 118.423 510.852 117.778V111.647C510.852 110.679 511.5 110.033 512.471 110.033C513.119 110.033 513.766 109.711 514.413 109.388C515.061 109.065 515.708 108.42 516.032 108.097C516.356 107.452 517.003 107.129 517.003 106.484C517.327 105.839 517.327 105.193 517.327 104.548L517.003 65.8265C517.003 65.1811 517.327 64.8584 517.327 64.5358C517.651 64.2131 517.975 63.8904 518.622 63.8904L557.146 63.5677C557.47 63.5677 558.118 63.8904 558.441 63.8904C558.765 64.2131 558.765 64.5358 558.765 64.8584L559.413 116.487C559.413 117.455 558.765 118.1 557.794 118.1H550.348C550.024 118.1 549.701 118.1 549.377 117.778C549.053 117.455 549.053 117.132 549.053 116.81L548.406 73.5708L527.363 73.8934L527.687 101.967C527.687 104.225 527.363 106.161 526.715 108.42C526.068 110.679 525.097 112.292 523.802 114.228C522.507 115.842 520.888 117.132 519.27 118.1C517.003 119.068 515.061 119.714 512.471 119.714ZM570.743 65.5038C570.743 64.8584 571.067 64.5358 571.391 64.2131C571.714 63.8904 572.038 63.5677 572.362 63.5677L580.132 63.2451C580.455 63.2451 580.779 63.5677 581.103 63.8904C581.75 64.2131 581.75 64.5358 581.75 65.1811L582.721 83.8965L607.001 82.9285L606.03 63.8904C605.707 63.245 606.03 62.9224 606.354 62.5997C606.678 62.277 607.001 61.9543 607.649 61.9543L615.095 61.6317C615.419 61.6317 616.066 61.6317 616.39 61.9543C616.714 62.277 617.037 62.5997 617.037 63.2451L619.627 114.551C619.627 115.519 618.98 116.164 617.685 116.164L610.239 116.487C609.915 116.487 609.268 116.487 608.944 116.164C608.62 115.842 608.296 115.519 608.296 114.874L607.325 92.6088L583.045 93.5769L584.016 115.842C584.016 116.487 583.693 116.81 583.369 117.132C583.045 117.455 582.721 117.778 582.074 117.778L574.628 118.1C573.657 118.1 573.009 117.455 573.009 116.487L570.743 65.5038ZM646.173 94.5449L661.713 93.2542L652.324 74.8615L646.173 94.5449ZM647.145 60.9863C647.145 60.6636 647.468 60.3409 647.792 60.0183C648.116 59.6956 648.763 59.6956 649.411 59.3729L653.619 59.0502C654.267 59.0502 654.59 59.0502 654.914 59.3729C655.238 59.6956 655.562 60.0183 655.562 60.3409L681.784 109.711V110.033C681.784 110.679 681.46 111.002 681.46 111.002C681.137 111.324 680.489 111.647 679.842 111.647L672.72 112.292C672.072 112.292 671.748 111.97 671.748 111.97C671.425 111.647 671.101 111.324 671.101 111.002L666.892 102.612L643.583 104.548L640.67 113.26C640.346 114.228 640.022 114.551 639.375 114.551L631.605 115.196C630.958 115.196 630.634 115.196 630.31 114.874C629.987 114.551 629.663 114.228 629.663 113.906C629.663 113.906 631.282 109.388 633.871 100.353C637.109 92.2861 641.317 78.7336 647.145 60.9863ZM736.819 65.5038C736.495 63.5677 735.524 62.277 734.229 61.6317C732.934 60.6636 731.315 60.3409 729.373 60.6636L718.366 62.277L720.308 74.8615L730.992 73.2481C731.963 72.9254 732.934 72.6027 733.582 72.2801C734.229 71.9574 734.876 71.312 735.524 70.6667C736.171 70.0213 736.495 69.0533 736.495 68.4079C736.819 67.1172 737.143 66.1492 736.819 65.5038ZM721.603 82.9285L723.546 97.1263L736.495 95.1903C737.466 94.8676 738.438 94.5449 739.085 94.2222C740.056 93.5769 740.704 93.2542 741.027 92.6088C741.675 91.6408 741.999 90.9954 742.322 90.0274C742.646 89.0594 742.646 88.0913 742.322 87.446C742.322 86.4779 741.999 85.5099 741.351 84.8645C740.704 83.8965 740.38 83.2511 739.409 82.6058C738.761 81.9604 738.114 81.6377 737.143 81.3151C736.171 80.9924 735.524 80.9924 734.553 80.9924L721.603 82.9285ZM747.502 63.5677C747.826 65.5038 747.826 67.4399 747.178 69.3759C746.531 71.312 745.883 72.9254 744.912 74.2161C745.883 74.8615 746.855 75.5069 747.826 76.4749C748.797 77.4429 749.445 78.411 750.416 79.379C751.063 80.347 751.711 81.6377 752.034 82.6058C752.682 83.8965 753.006 84.8645 753.006 86.1553C753.329 88.414 753.329 90.3501 752.682 92.6088C752.034 94.5449 751.063 96.481 750.092 98.0944C748.797 99.7078 747.502 101.321 745.56 102.289C743.941 103.257 741.999 104.225 739.733 104.548L715.776 107.775C715.129 108.097 714.481 107.775 714.158 107.452C713.51 107.129 713.51 106.807 713.186 106.161L706.064 56.1461C706.064 55.5008 706.064 54.8554 706.388 54.5327C706.712 54.21 707.359 53.8874 707.683 53.8874L729.373 50.6606C731.639 50.3379 733.582 50.3379 735.524 50.9833C737.466 51.6286 739.085 52.274 740.704 53.5647C742.322 54.8554 743.617 56.1461 744.589 57.7595C746.531 59.6956 747.178 61.6317 747.502 63.5677ZM772.43 68.0852C773.401 67.7626 774.696 67.1172 775.667 65.8265C776.962 64.5358 777.933 63.245 778.581 61.309C778.904 60.6636 779.228 60.0183 779.552 59.3729C779.876 58.7275 780.199 58.4049 780.199 57.7595C780.199 57.1142 780.523 56.7915 780.847 56.4688C781.17 55.8234 781.494 55.5008 781.494 55.1781C782.465 53.242 783.113 51.3059 784.084 49.3699C785.055 47.7565 786.026 46.1431 787.321 44.8524C788.616 43.5616 789.911 42.5936 791.53 41.6256C793.149 40.6575 795.091 40.0122 797.357 39.6895C798.328 39.3668 798.652 40.0122 798.976 40.9802L800.271 47.4338C800.595 48.0791 800.271 48.4018 799.947 48.7245C799.623 49.0472 799.3 49.3699 798.976 49.3699C797.681 49.6925 796.386 50.3379 795.091 51.6286C793.796 52.9193 792.501 54.5327 791.53 56.7915C790.883 57.7595 790.559 58.7275 789.911 60.0183C789.264 60.9863 788.94 61.9543 788.616 62.9224C787.969 64.2131 787.645 64.8584 787.321 65.8265C786.674 66.7945 786.35 67.4399 786.026 68.0852L813.868 90.9954C814.191 91.3181 814.191 91.3181 814.191 91.6408C814.515 91.6408 814.515 91.9635 814.515 91.9635C814.191 92.2861 814.191 92.2861 813.868 92.2861L802.861 94.5449C802.537 94.5449 802.213 94.5449 801.889 94.2222C801.566 93.8995 801.242 93.8995 800.918 93.8995C800.595 93.5769 800.271 93.2542 800.271 93.2542C799.947 92.9315 799.623 92.6088 799.3 92.6088L779.552 76.1522C778.904 77.1202 777.933 77.4429 776.962 78.0883C775.991 78.7336 775.02 79.0563 774.048 79.379L777.286 97.7717C777.609 98.7397 776.962 99.3851 775.991 99.7078L769.192 100.998C768.221 101.321 767.574 100.676 767.25 99.7078L758.509 48.4018C758.185 48.0791 758.509 47.4338 758.833 47.1111C759.157 46.7884 759.48 46.4658 759.804 46.4658L766.926 45.175C767.25 45.175 767.574 45.175 768.221 45.4977C768.545 45.8204 768.869 46.1431 768.869 46.4658L772.43 68.0852ZM828.112 90.6728C827.141 90.9954 826.493 90.3501 826.17 89.382L824.551 82.2831C824.551 81.9604 824.551 81.6377 824.875 81.3151C825.198 80.9924 825.198 80.6697 825.522 80.6697C826.17 80.347 826.817 80.347 827.464 80.0243C828.112 79.7017 828.436 79.379 829.083 79.0563C829.407 78.411 829.731 78.0883 830.054 77.1202C830.378 76.4749 830.702 75.5068 831.026 74.2161C831.349 73.8934 831.349 73.5708 831.349 73.5708L831.997 69.6986C828.436 64.5358 824.875 59.6956 821.314 54.5327C817.752 49.6925 814.191 44.5297 810.63 39.3668V39.6895C810.63 39.3668 810.63 39.3668 810.307 39.3668C810.307 39.0441 809.983 38.7215 809.983 38.7215C809.659 37.7534 810.307 37.4307 811.278 37.1081L818.076 35.4947C818.724 35.172 819.047 35.172 819.371 35.4947C819.695 35.8173 820.019 36.14 820.342 36.4627L820.99 37.4307C821.961 39.0441 822.932 40.6575 824.227 42.2709C825.198 43.8843 826.493 45.8204 827.464 47.4338C828.436 49.3699 829.731 50.9833 830.702 52.9193C831.997 54.8554 832.968 56.1461 833.939 57.7595C834.587 53.5647 834.91 49.3699 835.234 45.175C835.882 40.9802 836.205 36.7854 836.853 32.5906C836.853 31.9452 837.177 31.6225 837.5 31.2998C837.824 30.9772 838.148 30.6545 838.471 30.6545L845.27 29.0411C845.917 28.7184 846.241 29.0411 846.565 29.3638C846.889 29.6865 847.212 29.6865 847.212 30.3318C847.536 30.6545 847.536 30.6545 847.536 30.9772L847.212 31.9452C846.241 38.7215 845.27 45.175 844.299 51.3059C843.327 57.4368 842.356 63.245 841.709 68.7306C841.709 69.3759 841.385 70.0213 841.385 70.9893C841.385 71.9574 841.061 72.9254 840.738 73.8934C840.414 75.8295 840.09 77.7656 839.766 79.7017C839.119 81.6377 838.471 83.2511 837.824 84.8645C836.853 86.4779 835.882 87.7686 834.263 88.7367C831.997 89.382 830.378 90.3501 828.112 90.6728ZM892.535 20.3288C893.183 20.6514 893.506 20.6514 893.83 20.9741C894.154 21.2968 894.154 21.9422 894.154 22.5875L892.211 29.3638C891.888 30.0091 891.564 30.3318 891.24 30.6545C890.916 30.9772 890.593 30.9772 889.945 30.6545C888.003 30.0091 886.384 29.6865 884.442 29.3638C882.499 29.3638 880.881 29.6865 878.615 30.0091C876.348 30.6545 874.406 31.9452 872.464 33.2359C870.845 34.8493 869.226 36.4627 868.255 38.3988C867.284 40.3349 866.636 42.2709 866.313 44.8524C865.989 47.1111 866.313 49.3699 866.96 51.9513C867.607 54.21 868.902 56.4688 870.197 58.4049C871.816 60.3409 873.111 61.6317 875.053 62.9224C876.996 64.2131 878.938 64.8584 881.204 65.1811C883.471 65.5038 885.737 65.5038 888.326 64.5358C890.269 63.8904 891.888 63.2451 893.506 61.9543C895.125 60.9863 896.42 59.6956 897.715 58.0822C898.039 57.4368 898.686 57.4368 899.01 57.4368C899.333 57.1142 899.657 57.4368 900.305 57.7595L905.484 62.9224C906.132 63.5677 906.132 63.8904 906.132 64.2131C906.132 64.5358 905.808 64.8584 905.484 65.1811C903.866 67.4399 901.923 69.0533 899.333 70.6667C896.744 72.2801 894.154 73.2481 891.564 74.2161C888.974 74.8615 886.384 75.5068 884.118 75.5068C881.528 75.5068 879.262 75.1842 876.672 74.5388C874.406 73.8935 872.14 72.9254 869.874 71.9574C867.931 70.6667 865.989 69.3759 864.046 67.7626C862.104 66.1492 860.809 64.2131 859.514 61.9543C858.219 59.6956 857.248 57.7595 856.601 55.1781C855.629 52.5966 855.306 50.3379 855.306 47.7565C855.306 45.175 855.629 42.9163 856.277 40.6575C856.924 38.3988 857.895 36.14 858.867 33.8813C860.162 31.6225 861.457 29.6865 863.075 28.0731C864.694 26.4597 866.636 24.8463 868.902 23.5556C870.845 22.2648 873.111 21.2968 875.701 20.6514C878.615 19.6834 881.204 19.3607 884.118 19.3607C887.032 19.0381 889.945 19.6834 892.535 20.3288ZM926.203 41.9482L940.771 37.1081L927.175 21.6195L926.203 41.9482ZM918.434 9.03501C918.434 8.38965 918.758 8.06697 918.758 7.74429C919.081 7.42161 919.405 7.09893 920.052 7.09893L923.937 5.48554C924.585 5.16286 924.908 5.16286 925.232 5.48554C925.556 5.80822 925.88 5.80822 926.203 6.1309L963.757 47.7565L964.08 48.0791C964.08 48.4018 964.08 49.0472 963.757 49.3699C963.757 49.6925 963.109 50.0152 962.462 50.3379L955.663 52.5966C955.016 52.9193 954.692 52.9193 954.692 52.9193C954.368 52.9193 954.045 52.5967 953.721 52.274L947.246 45.4977L925.232 52.9193L924.585 62.277C924.585 63.245 924.261 63.5677 923.614 63.8904L916.491 66.4718C915.844 66.7945 915.52 66.7945 915.196 66.4718C914.873 66.4718 914.549 66.1492 914.549 65.5038C914.549 65.5038 914.873 60.9863 915.52 51.6286C916.491 41.9482 917.463 27.7504 918.434 9.03501ZM107.803 0.968037C108.127 0.645358 108.451 0.322679 108.775 0C109.098 0 109.422 0 109.746 0L116.868 2.58143C117.192 2.58143 117.515 2.90411 117.839 3.54947C118.163 3.87215 118.163 4.5175 118.163 4.84018L112.012 22.5875L134.997 30.3318L141.148 12.5845C141.472 11.9391 141.795 11.6164 142.119 11.6164C142.767 11.2938 143.09 11.2938 143.414 11.6164L150.213 13.8752C150.86 14.1979 151.184 14.5205 151.507 14.8432C151.831 15.4886 151.831 15.8113 151.831 16.1339L134.997 64.5358C134.673 65.8265 134.026 65.8265 132.731 65.5038L125.609 63.2451C125.285 62.9224 124.961 62.5997 124.638 62.277C124.314 61.9543 124.314 61.309 124.314 60.9863L131.76 40.0122L108.775 31.9452L101.329 53.242C101.005 53.8874 101.005 53.8874 100.357 54.21C100.034 54.5327 99.3863 54.5327 99.0625 54.21L92.2641 51.6286C91.2929 51.3059 90.9692 50.6606 91.2929 49.6925L107.803 0.968037Z" fill="#785454"/>
</g>
<defs>
<linearGradient id="paint0_linear_160_65902" x1="525.937" y1="383.676" x2="525.937" y2="848" gradientUnits="userSpaceOnUse">
<stop stop-color="#2FA1CF"/>
<stop offset="0.739583" stop-color="#359CE4"/>
<stop offset="1" stop-color="#2577BD"/>
</linearGradient>
<linearGradient id="paint1_linear_160_65902" x1="35.287" y1="535.324" x2="35.287" y2="605.668" gradientUnits="userSpaceOnUse">
<stop stop-color="#89D6F5"/>
<stop offset="1" stop-color="#2577BD"/>
</linearGradient>
<linearGradient id="paint2_linear_160_65902" x1="987.713" y1="535.325" x2="987.713" y2="605.669" gradientUnits="userSpaceOnUse">
<stop stop-color="#89D6F5"/>
<stop offset="1" stop-color="#2577BD"/>
</linearGradient>
<linearGradient id="paint3_linear_160_65902" x1="511.517" y1="72.1514" x2="511.517" y2="398.509" gradientUnits="userSpaceOnUse">
<stop stop-color="#FF7255"/>
<stop offset="1" stop-color="#EB6359"/>
</linearGradient>
<clipPath id="clip0_160_65902">
<rect width="1023" height="848" fill="white"/>
</clipPath>
</defs>
</svg>
